<svg width="136" height="30" viewBox="0 0 136 30" fill="none" xmlns="http://www.w3.org/2000/svg">
<path d="M15 0L16.1178 9.3806L20.7403 1.14181L18.1831 10.2361L25.6066 4.3934L19.7639 11.8169L28.8582 9.25975L20.6194 13.8822L30 15L20.6194 16.1178L28.8582 20.7403L19.7639 18.1831L25.6066 25.6066L18.1831 19.7639L20.7403 28.8582L16.1178 20.6194L15 30L13.8822 20.6194L9.25975 28.8582L11.8169 19.7639L4.3934 25.6066L10.2361 18.1831L1.14181 20.7403L9.3806 16.1178L0 15L9.3806 13.8822L1.14181 9.25975L10.2361 11.8169L4.3934 4.3934L11.8169 10.2361L9.25975 1.14181L13.8822 9.3806L15 0Z" fill="black"/>
<path d="M56.24 13.6C56.24 15.76 55.552 17.648 54.176 19.264L55.904 21.064L53.552 23.152L51.728 21.256C50.432 21.976 49.024 22.336 47.504 22.336C45.104 22.336 43.048 21.496 41.336 19.816C39.64 18.12 38.792 16.048 38.792 13.6C38.792 11.152 39.64 9.088 41.336 7.408C43.032 5.712 45.088 4.864 47.504 4.864C49.92 4.864 51.976 5.712 53.672 7.408C55.384 9.088 56.24 11.152 56.24 13.6ZM47.504 19.096C48.144 19.096 48.768 18.992 49.376 18.784L46.616 15.904L48.968 13.816L51.92 16.888C52.592 15.928 52.928 14.832 52.928 13.6C52.928 12 52.408 10.68 51.368 9.64C50.328 8.6 49.04 8.08 47.504 8.08C45.968 8.08 44.68 8.6 43.64 9.64C42.6 10.68 42.08 12 42.08 13.6C42.08 15.184 42.6 16.496 43.64 17.536C44.68 18.576 45.968 19.096 47.504 19.096ZM68.765 20.512C67.549 21.728 66.045 22.336 64.253 22.336C62.461 22.336 60.957 21.728 59.741 20.512C58.525 19.296 57.917 17.792 57.917 16C57.917 14.224 58.525 12.728 59.741 11.512C60.973 10.28 62.477 9.664 64.253 9.664C66.029 9.664 67.533 10.28 68.765 11.512C69.997 12.744 70.613 14.24 70.613 16C70.613 17.776 69.997 19.28 68.765 20.512ZM61.925 18.376C62.549 19 63.325 19.312 64.253 19.312C65.181 19.312 65.957 19 66.581 18.376C67.205 17.752 67.517 16.96 67.517 16C67.517 15.04 67.205 14.248 66.581 13.624C65.957 13 65.181 12.688 64.253 12.688C63.325 12.688 62.549 13 61.925 13.624C61.317 14.264 61.013 15.056 61.013 16C61.013 16.944 61.317 17.736 61.925 18.376ZM81.911 11.416V10H85.007V22H81.911V20.584C80.983 21.752 79.679 22.336 77.999 22.336C76.399 22.336 75.023 21.728 73.871 20.512C72.735 19.28 72.167 17.776 72.167 16C72.167 14.24 72.735 12.744 73.871 11.512C75.023 10.28 76.399 9.664 77.999 9.664C79.679 9.664 80.983 10.248 81.911 11.416ZM76.199 18.448C76.823 19.072 77.615 19.384 78.575 19.384C79.535 19.384 80.327 19.072 80.951 18.448C81.591 17.808 81.911 16.992 81.911 16C81.911 15.008 81.591 14.2 80.951 13.576C80.327 12.936 79.535 12.616 78.575 12.616C77.615 12.616 76.823 12.936 76.199 13.576C75.575 14.2 75.263 15.008 75.263 16C75.263 16.992 75.575 17.808 76.199 18.448ZM93.5264 22.336C91.7184 22.336 90.2064 21.728 88.9904 20.512C87.7904 19.296 87.1904 17.792 87.1904 16C87.1904 14.208 87.7904 12.704 88.9904 11.488C90.2064 10.272 91.7184 9.664 93.5264 9.664C94.6944 9.664 95.7584 9.944 96.7184 10.504C97.6784 11.064 98.4064 11.816 98.9024 12.76L96.2384 14.32C95.9984 13.824 95.6304 13.432 95.1344 13.144C94.6544 12.856 94.1104 12.712 93.5024 12.712C92.5744 12.712 91.8064 13.024 91.1984 13.648C90.5904 14.256 90.2864 15.04 90.2864 16C90.2864 16.928 90.5904 17.712 91.1984 18.352C91.8064 18.96 92.5744 19.264 93.5024 19.264C94.1264 19.264 94.6784 19.128 95.1584 18.856C95.6544 18.568 96.0224 18.176 96.2624 17.68L98.9504 19.216C98.4224 20.176 97.6704 20.936 96.6944 21.496C95.7344 22.056 94.6784 22.336 93.5264 22.336ZM107.26 9.664C108.588 9.664 109.668 10.104 110.5 10.984C111.364 11.88 111.796 13.096 111.796 14.632V22H108.7V15.016C108.7 14.232 108.484 13.624 108.052 13.192C107.636 12.76 107.06 12.544 106.324 12.544C105.508 12.544 104.86 12.8 104.38 13.312C103.916 13.808 103.684 14.544 103.684 15.52V22H100.588V5.2H103.684V11.344C104.42 10.224 105.612 9.664 107.26 9.664ZM126.103 17.272H117.055C117.455 18.776 118.583 19.528 120.439 19.528C121.623 19.528 122.519 19.128 123.127 18.328L125.623 19.768C124.439 21.48 122.695 22.336 120.391 22.336C118.407 22.336 116.815 21.736 115.615 20.536C114.415 19.336 113.815 17.824 113.815 16C113.815 14.208 114.407 12.704 115.591 11.488C116.759 10.272 118.279 9.664 120.151 9.664C121.927 9.664 123.375 10.272 124.495 11.488C125.647 12.704 126.223 14.208 126.223 16C126.223 16.336 126.183 16.76 126.103 17.272ZM117.007 14.872H123.127C122.951 14.088 122.591 13.488 122.047 13.072C121.519 12.656 120.887 12.448 120.151 12.448C119.319 12.448 118.631 12.664 118.087 13.096C117.543 13.512 117.183 14.104 117.007 14.872ZM131.481 10V12.064C131.753 11.312 132.217 10.744 132.873 10.36C133.529 9.96 134.281 9.76 135.129 9.76V13.216C134.185 13.088 133.337 13.28 132.585 13.792C131.849 14.288 131.481 15.112 131.481 16.264V22H128.385V10H131.481Z" fill="black"/>
</svg>
