<svg width="134" height="30" viewBox="0 0 134 30" fill="none" xmlns="http://www.w3.org/2000/svg">
<path d="M15 0L16.1178 9.3806L20.7403 1.14181L18.1831 10.2361L25.6066 4.3934L19.7639 11.8169L28.8582 9.25975L20.6194 13.8822L30 15L20.6194 16.1178L28.8582 20.7403L19.7639 18.1831L25.6066 25.6066L18.1831 19.7639L20.7403 28.8582L16.1178 20.6194L15 30L13.8822 20.6194L9.25975 28.8582L11.8169 19.7639L4.3934 25.6066L10.2361 18.1831L1.14181 20.7403L9.3806 16.1178L0 15L9.3806 13.8822L1.14181 9.25975L10.2361 11.8169L4.3934 4.3934L11.8169 10.2361L9.25975 1.14181L13.8822 9.3806L15 0Z" fill="black"/>
<path d="M47.528 22.336C45.016 22.336 42.928 21.496 41.264 19.816C39.616 18.152 38.792 16.08 38.792 13.6C38.792 11.104 39.616 9.032 41.264 7.384C42.928 5.704 45.016 4.864 47.528 4.864C49.048 4.864 50.448 5.224 51.728 5.944C53.024 6.648 54.032 7.608 54.752 8.824L51.896 10.48C51.48 9.728 50.888 9.144 50.12 8.728C49.352 8.296 48.488 8.08 47.528 8.08C45.896 8.08 44.576 8.592 43.568 9.616C42.576 10.656 42.08 11.984 42.08 13.6C42.08 15.2 42.576 16.52 43.568 17.56C44.576 18.584 45.896 19.096 47.528 19.096C48.488 19.096 49.352 18.888 50.12 18.472C50.904 18.04 51.496 17.456 51.896 16.72L54.752 18.376C54.032 19.592 53.024 20.56 51.728 21.28C50.448 21.984 49.048 22.336 47.528 22.336ZM66.9369 20.512C65.7209 21.728 64.2169 22.336 62.4249 22.336C60.6329 22.336 59.1289 21.728 57.9129 20.512C56.6969 19.296 56.0889 17.792 56.0889 16C56.0889 14.224 56.6969 12.728 57.9129 11.512C59.1449 10.28 60.6489 9.664 62.4249 9.664C64.2009 9.664 65.7049 10.28 66.9369 11.512C68.1689 12.744 68.7849 14.24 68.7849 16C68.7849 17.776 68.1689 19.28 66.9369 20.512ZM60.0969 18.376C60.7209 19 61.4969 19.312 62.4249 19.312C63.3529 19.312 64.1289 19 64.7529 18.376C65.3769 17.752 65.6889 16.96 65.6889 16C65.6889 15.04 65.3769 14.248 64.7529 13.624C64.1289 13 63.3529 12.688 62.4249 12.688C61.4969 12.688 60.7209 13 60.0969 13.624C59.4889 14.264 59.1849 15.056 59.1849 16C59.1849 16.944 59.4889 17.736 60.0969 18.376ZM80.0829 11.416V10H83.1789V22H80.0829V20.584C79.1549 21.752 77.8509 22.336 76.1709 22.336C74.5709 22.336 73.1949 21.728 72.0429 20.512C70.9069 19.28 70.3389 17.776 70.3389 16C70.3389 14.24 70.9069 12.744 72.0429 11.512C73.1949 10.28 74.5709 9.664 76.1709 9.664C77.8509 9.664 79.1549 10.248 80.0829 11.416ZM74.3709 18.448C74.9949 19.072 75.7869 19.384 76.7469 19.384C77.7069 19.384 78.4989 19.072 79.1229 18.448C79.7629 17.808 80.0829 16.992 80.0829 16C80.0829 15.008 79.7629 14.2 79.1229 13.576C78.4989 12.936 77.7069 12.616 76.7469 12.616C75.7869 12.616 74.9949 12.936 74.3709 13.576C73.7469 14.2 73.4349 15.008 73.4349 16C73.4349 16.992 73.7469 17.808 74.3709 18.448ZM91.6983 22.336C89.8903 22.336 88.3783 21.728 87.1623 20.512C85.9623 19.296 85.3623 17.792 85.3623 16C85.3623 14.208 85.9623 12.704 87.1623 11.488C88.3783 10.272 89.8903 9.664 91.6983 9.664C92.8663 9.664 93.9303 9.944 94.8903 10.504C95.8503 11.064 96.5783 11.816 97.0743 12.76L94.4103 14.32C94.1703 13.824 93.8023 13.432 93.3063 13.144C92.8263 12.856 92.2823 12.712 91.6743 12.712C90.7463 12.712 89.9783 13.024 89.3703 13.648C88.7623 14.256 88.4583 15.04 88.4583 16C88.4583 16.928 88.7623 17.712 89.3703 18.352C89.9783 18.96 90.7463 19.264 91.6743 19.264C92.2983 19.264 92.8503 19.128 93.3303 18.856C93.8263 18.568 94.1943 18.176 94.4343 17.68L97.1223 19.216C96.5943 20.176 95.8423 20.936 94.8663 21.496C93.9063 22.056 92.8503 22.336 91.6983 22.336ZM105.432 9.664C106.76 9.664 107.84 10.104 108.672 10.984C109.536 11.88 109.968 13.096 109.968 14.632V22H106.872V15.016C106.872 14.232 106.656 13.624 106.224 13.192C105.808 12.76 105.232 12.544 104.496 12.544C103.68 12.544 103.032 12.8 102.552 13.312C102.088 13.808 101.856 14.544 101.856 15.52V22H98.7598V5.2H101.856V11.344C102.592 10.224 103.784 9.664 105.432 9.664ZM124.275 17.272H115.227C115.627 18.776 116.755 19.528 118.611 19.528C119.795 19.528 120.691 19.128 121.299 18.328L123.795 19.768C122.611 21.48 120.867 22.336 118.563 22.336C116.579 22.336 114.987 21.736 113.787 20.536C112.587 19.336 111.987 17.824 111.987 16C111.987 14.208 112.579 12.704 113.763 11.488C114.931 10.272 116.451 9.664 118.323 9.664C120.099 9.664 121.547 10.272 122.667 11.488C123.819 12.704 124.395 14.208 124.395 16C124.395 16.336 124.355 16.76 124.275 17.272ZM115.179 14.872H121.299C121.123 14.088 120.763 13.488 120.219 13.072C119.691 12.656 119.059 12.448 118.323 12.448C117.491 12.448 116.803 12.664 116.259 13.096C115.715 13.512 115.355 14.104 115.179 14.872ZM129.653 10V12.064C129.925 11.312 130.389 10.744 131.045 10.36C131.701 9.96 132.453 9.76 133.301 9.76V13.216C132.357 13.088 131.509 13.28 130.757 13.792C130.021 14.288 129.653 15.112 129.653 16.264V22H126.557V10H129.653Z" fill="black"/>
</svg>
