<svg width="52" height="52" viewBox="0 0 52 52" fill="none" xmlns="http://www.w3.org/2000/svg">
<rect width="52" height="52" fill="#FAFAFA"/>
<rect x="0.5" y="0.5" width="51" height="51" stroke="#808080" stroke-opacity="0.1"/>
<path d="M22.0362 18.7967C22.3462 18.7075 22.6745 18.7084 23.092 18.7084H28.9054C29.322 18.7084 29.6512 18.7084 29.9612 18.7967C30.2345 18.8742 30.4912 19.0025 30.717 19.1742C30.9745 19.3692 31.1712 19.6325 31.422 19.9659L32.6612 21.6192C32.8312 21.8459 32.9645 22.0234 33.0612 22.2242C33.1479 22.402 33.2101 22.5881 33.2479 22.7825C33.2904 23.0017 33.2904 23.2242 33.2904 23.5075V30.0259C33.2904 30.4709 33.2904 30.8425 33.2654 31.1459C33.2404 31.4625 33.1837 31.7592 33.0404 32.04C32.8209 32.4712 32.4705 32.8218 32.0395 33.0417C31.7579 33.185 31.4612 33.2417 31.1445 33.2667C30.8412 33.2917 30.4695 33.2917 30.0245 33.2917H21.9737C21.5279 33.2917 21.157 33.2917 20.8529 33.2667C20.5362 33.2417 20.2395 33.185 19.9587 33.0417C19.5277 32.8224 19.177 32.4724 18.957 32.0417C18.8137 31.76 18.757 31.4634 18.732 31.1467C18.707 30.8434 18.707 30.4717 18.707 30.0267V23.5067C18.707 23.2242 18.707 23.0017 18.7495 22.7825C18.7877 22.5893 18.8501 22.4017 18.9354 22.2242C19.0329 22.0242 19.1662 21.8459 19.3362 21.6192L20.5762 19.9667C20.8262 19.6325 21.0229 19.3692 21.2804 19.175C21.5062 19.0025 21.7629 18.875 22.0362 18.7967ZM24.7487 26.4167C24.7487 26.6377 24.8365 26.8497 24.9928 27.006C25.1491 27.1622 25.361 27.25 25.582 27.25H26.4154C26.6364 27.25 26.8483 27.1622 27.0046 27.006C27.1609 26.8497 27.2487 26.6377 27.2487 26.4167V23.2917H32.6645C32.6667 23.1613 32.6567 23.031 32.6345 22.9025C32.6069 22.762 32.5612 22.6256 32.4987 22.4967C32.437 22.3684 32.352 22.25 32.1962 22.0417H27.1712L26.9354 20.16C26.9065 19.932 26.7954 19.7224 26.6229 19.5704C26.4505 19.4185 26.2285 19.3346 25.9987 19.3346C25.7689 19.3346 25.5469 19.4185 25.3745 19.5704C25.202 19.7224 25.0909 19.932 25.062 20.16L24.827 22.0417H19.8012C19.6454 22.25 19.5604 22.3684 19.4987 22.4967C19.4362 22.6256 19.3905 22.762 19.3629 22.9025C19.3407 23.031 19.3307 23.1613 19.3329 23.2917H24.7487V26.4167ZM20.9987 30.1667C20.9987 30.3877 21.0865 30.5997 21.2428 30.756C21.3991 30.9122 21.611 31 21.832 31H24.332C24.553 31 24.765 30.9122 24.9213 30.756C25.0776 30.5997 25.1654 30.3877 25.1654 30.1667C25.1654 29.9457 25.0776 29.7337 24.9213 29.5775C24.765 29.4212 24.553 29.3334 24.332 29.3334H21.832C21.611 29.3334 21.3991 29.4212 21.2428 29.5775C21.0865 29.7337 20.9987 29.9457 20.9987 30.1667Z" fill="black"/>
</svg>
