<svg width="50" height="52" viewBox="0 0 50 52" fill="none" xmlns="http://www.w3.org/2000/svg">
<rect width="49.5" height="52" fill="#FAFAFA"/>
<rect x="0.5" y="0.5" width="48.5" height="51" stroke="#808080" stroke-opacity="0.1"/>
<g clip-path="url(#clip0_264_2672)">
<path d="M19.75 16C17.6797 16 16 17.6797 16 19.75V32.25C16 34.3203 17.6797 36 19.75 36H32.25C32.9414 36 33.5 35.4414 33.5 34.75C33.5 34.0586 32.9414 33.5 32.25 33.5V31C32.9414 31 33.5 30.4414 33.5 29.75V17.25C33.5 16.5586 32.9414 16 32.25 16H19.75ZM19.75 31H29.75V33.5H19.75C19.0586 33.5 18.5 32.9414 18.5 32.25C18.5 31.5586 19.0586 31 19.75 31ZM21 21.625C21 21.2812 21.2812 21 21.625 21H29.125C29.4688 21 29.75 21.2812 29.75 21.625C29.75 21.9688 29.4688 22.25 29.125 22.25H21.625C21.2812 22.25 21 21.9688 21 21.625ZM21.625 23.5H29.125C29.4688 23.5 29.75 23.7812 29.75 24.125C29.75 24.4688 29.4688 24.75 29.125 24.75H21.625C21.2812 24.75 21 24.4688 21 24.125C21 23.7812 21.2812 23.5 21.625 23.5Z" fill="black"/>
</g>
<defs>
<clipPath id="clip0_264_2672">
<rect width="17.5" height="20" fill="white" transform="translate(16 16)"/>
</clipPath>
</defs>
</svg>
